<?xml version="1.0" standalone="no"?><!DOCTYPE svg PUBLIC "-//W3C//DTD SVG 1.1//EN" "http://www.w3.org/Graphics/SVG/1.1/DTD/svg11.dtd"><svg t="1773404584139" class="icon" viewBox="0 0 1024 1024" version="1.1" xmlns="http://www.w3.org/2000/svg" p-id="6494" xmlns:xlink="http://www.w3.org/1999/xlink" width="200" height="200"><path d="M240 192c-8.96 0-16 8.032-16 18.272v27.456c0 10.24 7.04 18.272 16 18.272s16-8.032 16-18.272V210.24C256 200.032 248.96 192 240 192z" fill="#da7219" p-id="6495"></path><path d="M992 525.504c0-184.864-150.496-334.24-336-334.24h-123.52a8.96 8.96 0 0 1-2.144-0.256c8.64-12.896 13.664-28.384 13.664-45.056A81.984 81.984 0 0 0 461.76 64c-23.392 0-44.672 9.792-59.68 25.568a175.68 175.68 0 0 0-88.544 0.992l-228.48 62.08h-0.128A71.84 71.84 0 0 0 32 221.664v16.224c0 40.8 11.776 78.848 32.096 110.944v54.688c0 6.72 5.76 12.48 12.48 12.48h39.04c3.84 0 7.328-1.856 9.632-4.672 10.912 7.232 22.528 13.472 34.752 18.592v0.064h-23.008c-22.528 0-40.992 18.464-40.992 41.024C96 493.536 114.464 512 136.992 512h30.208c16.96 57.92 62.432 105.216 120.8 122.144v20.352l-13.12-4.736a1.216 1.216 0 0 1-0.544-0.192c-0.16-0.096-0.32-0.16-0.512-0.16l-1.024-0.352A154.56 154.56 0 0 0 215.744 640c-82.752 2.784-150.24 70.592-151.616 153.728a156.672 156.672 0 0 0 156.48 159.264h449.664c86.72 0 160-56.736 184.768-135.2 83.2-71.04 136.96-181.92 136.96-292.288zM444.768 139.36A18.336 18.336 0 0 1 461.76 128c10.336 0 18.24 8.128 18.24 17.952a17.6 17.6 0 0 1-9.216 15.36l-31.68 17.696 34.944 47.424 0.32 0.384c13.888 17.664 35.2 28.48 58.112 28.48h123.52c150.496 0 272 121.024 272 270.208 0 102.24-56.832 206.944-140.48 263.36l-6.08 4.16c-45.376 9.6-93.12 6.592-137.92-9.728l-291.52-105.6v-67.968c36.352-2.976 67.552-16.16 90.592-38.752 26.368-25.92 40.416-62.624 40.416-105.984a16 16 0 0 0-32 0c0 36.32-11.616 64.288-30.848 83.136-18.144 17.856-44.48 28.928-78.016 30.112l-18.624-2.048c-49.92-5.504-91.104-47.04-98.368-98.24H265.92c30.688 0 57.6-16.096 72.832-40.096l0.096-0.192c2.112-3.36 3.968-6.88 5.6-10.56l12.48-28.096c6.464-9.024 9.6-20.48 9.6-33.888 0-29.568-22.112-53.024-45.184-67.968-23.68-15.296-53.568-25.152-78.464-25.152H200.32a44.192 44.192 0 0 1-40.864-27.488l-16.768-41.248 187.616-50.944a111.264 111.264 0 0 1 72.32 4.672l30.08 12.608 12.064-30.24z m-110.272 225.76c0 10.08-2.656 14.624-5.12 17.056H240.96c-63.68 0-117.76-40.96-137.248-97.728 10.944-6.72 20-16.32 26.016-28.128l0.096 0.32A76.16 76.16 0 0 0 200.32 304h42.56c17.664 0 41.6 7.424 61.088 20.032 20.096 12.992 30.528 28.096 30.528 41.088z" fill="#da7219" p-id="6496"></path></svg>